<?xml version="1.0" encoding="UTF-8"?>
<svg xmlns="http://www.w3.org/2000/svg" viewBox="270 115 160 120">
  <!-- Javi Labs Beaker Icon - Extracted from full logo -->
  <defs>
    <style>
      .st0 {
        fill: #175442;
      }
      .st3 {
        fill: #c3a25d;
      }
    </style>
  </defs>

  <!-- Circuit lines - green (left to right) -->
  <path class="st0" d="M395.58,211.53c0-1.89-1.53-3.41-3.41-3.41s-3.41,1.53-3.41,3.41c0,1.3.73,2.41,1.79,2.99v11.67c0,.89.72,1.62,1.62,1.62s1.62-.72,1.62-1.62v-4.6s0-7.07,0-7.07c1.06-.58,1.79-1.69,1.79-2.99Z"/>
  <path class="st0" d="M325.31,191.47c0-1.89-1.53-3.41-3.41-3.41s-3.41,1.53-3.41,3.41c0,1.3.73,2.41,1.79,2.99v32.17c0,.89.72,1.62,1.62,1.62s1.62-.72,1.62-1.62v-32.17c1.06-.58,1.79-1.69,1.79-2.99Z"/>
  <path class="st0" d="M309.45,214.52c1.06-.58,1.79-1.69,1.79-2.99,0-1.89-1.53-3.41-3.41-3.41s-3.41,1.53-3.41,3.41c0,1.3.73,2.41,1.79,2.99v11.67c0,.89.72,1.62,1.62,1.62s1.62-.72,1.62-1.62h0v-11.67Z"/>
  <path class="st0" d="M341.35,199.91v27.78c0,.89.72,1.62,1.62,1.62s1.62-.72,1.62-1.62v-27.78c0-.89-.72-1.62-1.62-1.62s-1.62.72-1.62,1.62"/>
  <path class="st0" d="M337.56,226.31v-19.58c0-.89-.72-1.62-1.62-1.62s-1.62.72-1.62,1.62v19.58c0,.89.72,1.62,1.62,1.62s1.62-.72,1.62-1.62"/>
  <path class="st0" d="M351.33,198.22l-6.73-9.61v-34.2c0-.89-.72-1.62-1.62-1.62s-1.62.72-1.62,1.62v34.7s0,0,0,0c0,.33.09.65.28.93l6.74,9.62v26.97c0,.89.72,1.62,1.62,1.62s1.62-.72,1.62-1.62v-27.48c0-.33-.1-.66-.29-.93Z"/>
  <path class="st0" d="M353.41,145.27c0-1.89-1.53-3.41-3.41-3.41s-3.41,1.53-3.41,3.41c0,1.3.73,2.41,1.79,2.99v39.41c0,.89.72,1.62,1.62,1.62s1.62-.72,1.62-1.62v-39.41c1.06-.58,1.79-1.69,1.79-2.99Z"/>
  <path class="st0" d="M346.39,154.56c0,1.89-1.53,3.41-3.41,3.41s-3.41-1.53-3.41-3.41,1.53-3.41,3.41-3.41,3.41,1.53,3.41,3.41Z"/>

  <!-- Circuit lines - gold -->
  <path class="st3" d="M339.35,171.44c0-1.88-1.53-3.41-3.41-3.41s-3.41,1.53-3.41,3.41c0,1.3.73,2.41,1.79,2.99v22.92l-6.73,9.6c-.19.27-.29.6-.29.93v19.81c0,.89.72,1.62,1.62,1.62s1.62-.72,1.62-1.62v-1.46s0-17.84,0-17.84l6.73-9.6c.25-.35.33-.77.27-1.17,0-.07.02-.14.02-.21h0v-2.26s0,0,0,0v-20.73c1.06-.58,1.79-1.69,1.79-2.99Z"/>
  <path class="st0" d="M332.33,181.46c0-1.89-1.53-3.41-3.41-3.41s-3.41,1.53-3.41,3.41c0,1.3.73,2.41,1.79,2.99v14.21c0,.89.72,1.62,1.62,1.62s1.62-.72,1.62-1.62v-14.21c1.06-.58,1.79-1.69,1.79-2.99Z"/>
  <path class="st3" d="M316.48,217.95v-13.44c1.06-.58,1.79-1.69,1.79-2.99,0-1.89-1.53-3.41-3.41-3.41s-3.41,1.53-3.41,3.41c0,1.3.73,2.41,1.79,2.99v13.44c-1.06.58-1.79,1.69-1.79,2.99,0,1.89,1.53,3.41,3.41,3.41s3.41-1.53,3.41-3.41c0-1.3-.73-2.41-1.79-2.99Z"/>
  <path class="st0" d="M355.41,199.91v27.78c0,.89.72,1.62,1.62,1.62s1.62-.72,1.62-1.62v-27.78c0-.89-.72-1.62-1.62-1.62s-1.62.72-1.62,1.62"/>
  <path class="st0" d="M362.44,206.74v19.58c0,.89.72,1.62,1.62,1.62s1.62-.72,1.62-1.62v-19.58c0-.89-.72-1.62-1.62-1.62s-1.62.72-1.62,1.62"/>
  <path class="st3" d="M358.64,189.12h0v-34.7c0-.89-.72-1.62-1.62-1.62s-1.62.72-1.62,1.62h0v34.2l-6.73,9.61c-.19.27-.29.6-.29.93v27.48c0,.89.72,1.62,1.62,1.62s1.62-.72,1.62-1.62v-26.97l6.74-9.62c.19-.28.28-.6.28-.93Z"/>
  <path class="st3" d="M353.61,154.56c0,1.89,1.53,3.41,3.41,3.41s3.41-1.53,3.41-3.41-1.53-3.41-3.41-3.41-3.41,1.53-3.41,3.41Z"/>
  <path class="st3" d="M372.7,207.88c0-.33-.1-.66-.29-.93l-6.73-9.6v-2.2s0,0,0,0v-20.73c1.06-.58,1.79-1.69,1.79-2.99,0-1.88-1.53-3.41-3.41-3.41s-3.41,1.53-3.41,3.41c0,1.3.73,2.41,1.79,2.99v22.99c0,.07.01.14.02.21-.06.4.02.81.27,1.17h0s6.73,9.6,6.73,9.6v17.84s0,1.46,0,1.46c0,.89.72,1.62,1.62,1.62s1.62-.72,1.62-1.62v-1.46s0-18.35,0-18.35Z"/>
  <path class="st0" d="M374.5,181.46c0-1.89-1.53-3.41-3.41-3.41s-3.41,1.53-3.41,3.41c0,1.3.73,2.41,1.79,2.99v14.21c0,.89.72,1.62,1.62,1.62s1.62-.72,1.62-1.62v-14.21c1.06-.58,1.79-1.69,1.79-2.99Z"/>
  <path class="st0" d="M381.52,191.47c0-1.89-1.53-3.41-3.41-3.41s-3.41,1.53-3.41,3.41c0,1.3.73,2.41,1.79,2.99v32.17c0,.89.72,1.62,1.62,1.62s1.62-.72,1.62-1.62v-32.17c1.06-.58,1.79-1.69,1.79-2.99Z"/>
  <path class="st3" d="M386.76,217.95v-13.44c1.06-.58,1.79-1.69,1.79-2.99,0-1.89-1.53-3.41-3.41-3.41s-3.41,1.53-3.41,3.41c0,1.3.73,2.41,1.79,2.99v13.44c-1.06.58-1.79,1.69-1.79,2.99,0,1.89,1.53,3.41,3.41,3.41s3.41-1.53,3.41-3.41c0-1.3-.73-2.41-1.79-2.99Z"/>

  <!-- Beaker outline -->
  <path class="st0" d="M334.23,136.12v22.12l-33.8,48.22c-1.82,2.59-2.65,5.48-2.65,8.29,0,3.78,1.49,7.4,4.05,10.1,2.56,2.7,6.23,4.47,10.49,4.46h75.36c4.25,0,7.93-1.76,10.49-4.46,2.56-2.7,4.05-6.32,4.05-10.1,0-2.81-.84-5.7-2.65-8.29l-33.8-48.22v-22.12c0-.89-.72-1.62-1.62-1.62s-1.62.72-1.62,1.62v22.63c0,.33.1.66.29.93l34.09,48.64c1.43,2.05,2.06,4.26,2.07,6.43,0,2.92-1.17,5.77-3.16,7.87-2,2.1-4.79,3.45-8.14,3.46h-75.36c-3.35,0-6.14-1.36-8.14-3.46-2-2.10-3.16-4.95-3.16-7.87,0-2.17.63-4.38,2.07-6.43l34.09-48.64c.19-.27.29-.6.29-.93v-22.63c0-.89-.72-1.62-1.62-1.62s-1.62.72-1.62,1.62h0Z"/>

  <!-- Beaker cap/lid -->
  <path class="st3" d="M343.77,137.74h26.15c4.72,0,8.57-3.83,8.57-8.57v-2.16c0-4.74-3.84-8.57-8.57-8.57h-39.84c-4.72,0-8.57,3.83-8.57,8.57v2.16c0,4.74,3.84,8.57,8.57,8.57h5.77c.89,0,1.62-.72,1.62-1.62s-.72-1.62-1.62-1.62h-5.77c-1.47,0-2.8-.59-3.77-1.56-.97-.97-1.56-2.29-1.56-3.77v-2.16c0-1.48.6-2.8,1.56-3.77.97-.97,2.29-1.56,3.77-1.56h39.84c1.47,0,2.8.59,3.77,1.56.97.97,1.56,2.29,1.56,3.77v2.16c0,1.48-.6,2.8-1.56,3.77-.97.97-2.29,1.56-3.77,1.56h-26.15c-.89,0-1.62.72-1.62,1.62s.72,1.62,1.62,1.62h0Z"/>
</svg>
